<?xml version="1.0" encoding="utf-8"?>
<!-- Generator: Adobe Illustrator 19.2.1, SVG Export Plug-In . SVG Version: 6.00 Build 0)  -->
<svg version="1.1" id="Capa_1" xmlns="http://www.w3.org/2000/svg" xmlns:xlink="http://www.w3.org/1999/xlink" x="0px" y="0px"
	 viewBox="0 0 374 126.7" style="enable-background:new 0 0 374 126.7;" xml:space="preserve">
<style type="text/css">
	.st0{fill:#FFFFFF;}
	.st1{fill:url(#SVGID_1_);}
	.st2{fill:url(#SVGID_2_);}
	.st3{fill:url(#SVGID_3_);}
	.st4{fill:url(#SVGID_4_);}
</style>
<g>
	<path class="st0" d="M150.6,77.8V57.2h2.7v8.5H164v-8.5h2.7v20.6H164v-9.7h-10.7v9.7H150.6z"/>
	<path class="st0" d="M176,77.8V57.2h2.7v20.6H176z"/>
	<path class="st0" d="M197.5,69.7v-2.4l8.7,0V75c-1.3,1.1-2.7,1.9-4.1,2.4c-1.4,0.5-2.9,0.8-4.4,0.8c-2,0-3.9-0.4-5.5-1.3
		c-1.7-0.9-2.9-2.1-3.7-3.8c-0.8-1.6-1.3-3.5-1.3-5.5c0-2,0.4-3.9,1.3-5.6c0.8-1.7,2-3,3.6-3.9c1.6-0.8,3.4-1.3,5.4-1.3
		c1.5,0,2.8,0.2,4,0.7c1.2,0.5,2.1,1.2,2.8,2c0.7,0.9,1.2,2,1.6,3.4l-2.5,0.7c-0.3-1-0.7-1.9-1.2-2.5s-1.1-1.1-2-1.4
		c-0.9-0.4-1.8-0.5-2.8-0.5c-1.2,0-2.3,0.2-3.2,0.6c-0.9,0.4-1.6,0.9-2.2,1.5c-0.6,0.6-1,1.3-1.3,2c-0.5,1.3-0.8,2.7-0.8,4.1
		c0,1.8,0.3,3.4,0.9,4.6c0.6,1.2,1.6,2.2,2.8,2.8c1.2,0.6,2.5,0.9,3.8,0.9c1.2,0,2.3-0.2,3.5-0.7c1.1-0.5,2-0.9,2.6-1.5v-3.8H197.5z
		"/>
	<path class="st0" d="M214.6,77.8V57.2h2.7v8.5h10.7v-8.5h2.7v20.6h-2.7v-9.7h-10.7v9.7H214.6z"/>
	<path class="st0" d="M256.6,77.8V59.7h-6.8v-2.4h16.3v2.4h-6.8v18.2H256.6z"/>
	<path class="st0" d="M273.3,77.8V57.2h14.9v2.4H276V66h11.4v2.4H276v7h12.6v2.4H273.3z"/>
	<path class="st0" d="M311.4,70.6l2.7,0.7c-0.6,2.2-1.6,3.9-3.1,5.1c-1.5,1.2-3.3,1.8-5.4,1.8c-2.2,0-4-0.5-5.4-1.4
		c-1.4-0.9-2.5-2.2-3.2-3.9c-0.7-1.7-1.1-3.6-1.1-5.5c0-2.1,0.4-4,1.2-5.6c0.8-1.6,2-2.8,3.5-3.6c1.5-0.8,3.2-1.2,5-1.2
		c2.1,0,3.8,0.5,5.2,1.6c1.4,1.1,2.4,2.5,2.9,4.4l-2.7,0.6c-0.5-1.5-1.2-2.6-2.1-3.3c-0.9-0.7-2.1-1-3.4-1c-1.6,0-2.9,0.4-4,1.1
		s-1.8,1.8-2.2,3.1c-0.4,1.3-0.6,2.6-0.6,4c0,1.8,0.3,3.3,0.8,4.6c0.5,1.3,1.3,2.3,2.4,2.9c1.1,0.6,2.2,1,3.5,1
		c1.5,0,2.8-0.4,3.9-1.3C310.4,73.6,311.1,72.3,311.4,70.6z"/>
	<path class="st0" d="M321.9,77.8V57.2h2.7v8.5h10.7v-8.5h2.7v20.6h-2.7v-9.7h-10.7v9.7H321.9z"/>
</g>
<g>
	<path class="st0" d="M150.5,106.2V88.9h11.7v2h-9.4v5.4h8.1v2h-8.1v7.8H150.5z"/>
	<path class="st0" d="M169.1,106.2V88.9h2.3v17.3H169.1z"/>
	<path class="st0" d="M179,106.2V88.9h2.3l9.1,13.6V88.9h2.2v17.3h-2.3l-9.1-13.6v13.6H179z"/>
	<path class="st0" d="M198.1,106.2l6.6-17.3h2.5l7.1,17.3h-2.6l-2-5.2h-7.2l-1.9,5.2H198.1z M203.1,99.1h5.9l-1.8-4.8
		c-0.6-1.5-1-2.6-1.2-3.6c-0.2,1.1-0.5,2.2-0.9,3.3L203.1,99.1z"/>
	<path class="st0" d="M219.7,106.2V88.9h2.3l9.1,13.6V88.9h2.2v17.3H231l-9.1-13.6v13.6H219.7z"/>
	<path class="st0" d="M253.1,100.1l2.3,0.6c-0.5,1.9-1.3,3.3-2.6,4.3c-1.2,1-2.8,1.5-4.6,1.5c-1.9,0-3.4-0.4-4.5-1.1
		c-1.2-0.8-2.1-1.9-2.7-3.3c-0.6-1.4-0.9-3-0.9-4.6c0-1.8,0.3-3.4,1-4.7c0.7-1.3,1.7-2.4,2.9-3.1c1.3-0.7,2.7-1,4.2-1
		c1.7,0,3.2,0.4,4.4,1.3c1.2,0.9,2,2.1,2.5,3.7l-2.3,0.5c-0.4-1.3-1-2.2-1.7-2.7c-0.8-0.6-1.7-0.9-2.9-0.9c-1.3,0-2.4,0.3-3.3,1
		c-0.9,0.6-1.5,1.5-1.9,2.6c-0.4,1.1-0.5,2.2-0.5,3.3c0,1.5,0.2,2.8,0.6,3.8c0.4,1.1,1.1,1.9,2,2.5c0.9,0.5,1.9,0.8,2.9,0.8
		c1.3,0,2.4-0.4,3.3-1.1C252.2,102.7,252.8,101.6,253.1,100.1z"/>
	<path class="st0" d="M261.8,106.2V88.9h12.5v2h-10.2v5.3h9.6v2h-9.6v5.9h10.6v2H261.8z"/>
	<path class="st0" d="M304.1,100.1l2.3,0.6c-0.5,1.9-1.3,3.3-2.6,4.3c-1.2,1-2.8,1.5-4.6,1.5c-1.9,0-3.4-0.4-4.5-1.1
		c-1.2-0.8-2.1-1.9-2.7-3.3c-0.6-1.4-0.9-3-0.9-4.6c0-1.8,0.3-3.4,1-4.7c0.7-1.3,1.7-2.4,2.9-3.1c1.3-0.7,2.7-1,4.2-1
		c1.7,0,3.2,0.4,4.4,1.3c1.2,0.9,2,2.1,2.5,3.7l-2.3,0.5c-0.4-1.3-1-2.2-1.7-2.7c-0.8-0.6-1.7-0.9-2.9-0.9c-1.3,0-2.4,0.3-3.3,1
		c-0.9,0.6-1.5,1.5-1.9,2.6c-0.4,1.1-0.5,2.2-0.5,3.3c0,1.5,0.2,2.8,0.6,3.8c0.4,1.1,1.1,1.9,2,2.5c0.9,0.5,1.9,0.8,2.9,0.8
		c1.3,0,2.4-0.4,3.3-1.1C303.2,102.7,303.8,101.6,304.1,100.1z"/>
	<path class="st0" d="M312.1,97.8c0-2.9,0.8-5.1,2.3-6.7c1.5-1.6,3.5-2.4,6-2.4c1.6,0,3,0.4,4.3,1.1c1.3,0.8,2.3,1.8,2.9,3.2
		c0.7,1.4,1,2.9,1,4.6c0,1.8-0.4,3.3-1.1,4.7c-0.7,1.4-1.7,2.4-3,3.1c-1.3,0.7-2.7,1.1-4.2,1.1c-1.6,0-3.1-0.4-4.4-1.2
		c-1.3-0.8-2.3-1.9-2.9-3.2C312.4,100.7,312.1,99.3,312.1,97.8z M314.5,97.8c0,2.1,0.6,3.7,1.7,4.9c1.1,1.2,2.5,1.8,4.2,1.8
		c1.7,0,3.1-0.6,4.2-1.8c1.1-1.2,1.7-2.9,1.7-5.1c0-1.4-0.2-2.6-0.7-3.7c-0.5-1-1.2-1.9-2.1-2.4c-0.9-0.6-1.9-0.9-3.1-0.9
		c-1.6,0-3,0.6-4.2,1.7C315,93.4,314.5,95.2,314.5,97.8z"/>
	<path class="st0" d="M335.2,106.2V88.9h7.7c1.5,0,2.7,0.2,3.5,0.5c0.8,0.3,1.4,0.9,1.9,1.6c0.5,0.8,0.7,1.7,0.7,2.6
		c0,1.2-0.4,2.3-1.2,3.1c-0.8,0.8-2,1.4-3.7,1.6c0.6,0.3,1.1,0.6,1.4,0.9c0.7,0.6,1.3,1.4,1.9,2.3l3,4.7h-2.9l-2.3-3.6
		c-0.7-1-1.2-1.8-1.6-2.4c-0.4-0.6-0.8-0.9-1.2-1.2c-0.3-0.2-0.7-0.4-1-0.5c-0.3-0.1-0.7-0.1-1.3-0.1h-2.7v7.7H335.2z M337.5,96.5
		h4.9c1,0,1.9-0.1,2.5-0.3c0.6-0.2,1-0.6,1.3-1c0.3-0.5,0.5-1,0.5-1.5c0-0.8-0.3-1.5-0.9-2c-0.6-0.5-1.5-0.8-2.8-0.8h-5.5V96.5z"/>
	<path class="st0" d="M356.2,106.2V88.9h6.5c1.1,0,2,0.1,2.6,0.2c0.8,0.1,1.6,0.4,2.1,0.8s1,1,1.4,1.7c0.3,0.7,0.5,1.5,0.5,2.4
		c0,1.5-0.5,2.7-1.4,3.7c-0.9,1-2.6,1.5-5.1,1.5h-4.4v7H356.2z M358.5,97.1h4.5c1.5,0,2.5-0.3,3.1-0.8c0.6-0.6,0.9-1.3,0.9-2.3
		c0-0.7-0.2-1.3-0.5-1.9c-0.4-0.5-0.8-0.9-1.4-1c-0.4-0.1-1.1-0.2-2.1-0.2h-4.4V97.1z"/>
</g>
<g>
	<g>
		<linearGradient id="SVGID_1_" gradientUnits="userSpaceOnUse" x1="37.6372" y1="55.8996" x2="92.974" y2="55.8996">
			<stop  offset="0" style="stop-color:#E2C466"/>
			<stop  offset="0.23" style="stop-color:#976F33"/>
			<stop  offset="0.33" style="stop-color:#D5B55C"/>
			<stop  offset="0.46" style="stop-color:#F6F1B7"/>
			<stop  offset="0.58" style="stop-color:#D5B55C"/>
			<stop  offset="0.69" style="stop-color:#815D2A"/>
			<stop  offset="1" style="stop-color:#D5B55C"/>
		</linearGradient>
		<path class="st1" d="M93,53c0-24.2-27.7-24.2-27.7-24.2H37.6v13.9l13.2,20.8h-2.9H37.6v5.9v2.8L51.5,83v-5.7h6.4h7.4
			C65.3,77.3,93,77.3,93,53z M67.1,63.4L54.1,42.7h11.2c0,0,13.9,0,13.9,10.3C79.2,61.1,70.8,62.9,67.1,63.4z"/>
		<linearGradient id="SVGID_2_" gradientUnits="userSpaceOnUse" x1="37.6372" y1="94.835" x2="51.5309" y2="94.835">
			<stop  offset="0" style="stop-color:#E2C466"/>
			<stop  offset="0.23" style="stop-color:#976F33"/>
			<stop  offset="0.33" style="stop-color:#D5B55C"/>
			<stop  offset="0.46" style="stop-color:#F6F1B7"/>
			<stop  offset="0.58" style="stop-color:#D5B55C"/>
			<stop  offset="0.69" style="stop-color:#815D2A"/>
			<stop  offset="1" style="stop-color:#D5B55C"/>
		</linearGradient>
		<polygon class="st2" points="37.6,94 51.5,106.2 51.5,93.3 37.6,83.5 		"/>
		<linearGradient id="SVGID_3_" gradientUnits="userSpaceOnUse" x1="4.8827" y1="93.4607" x2="34.4929" y2="93.4607">
			<stop  offset="0" style="stop-color:#E2C466"/>
			<stop  offset="0.23" style="stop-color:#976F33"/>
			<stop  offset="0.33" style="stop-color:#D5B55C"/>
			<stop  offset="0.46" style="stop-color:#F6F1B7"/>
			<stop  offset="0.58" style="stop-color:#D5B55C"/>
			<stop  offset="0.69" style="stop-color:#815D2A"/>
			<stop  offset="1" style="stop-color:#D5B55C"/>
		</linearGradient>
		<path class="st3" d="M16.6,83.9c-4.3-2.8-8.2-5.9-11.7-9.3c2.2,11.5,7.7,22.1,16.2,30.5c2.7,2.7,5.6,5.1,8.7,7.2
			c1.5-1.9,3.1-4.2,4.8-7c-2.6-1.8-5.1-3.8-7.5-6.2C22.6,94.7,19,89.5,16.6,83.9z"/>
		<linearGradient id="SVGID_4_" gradientUnits="userSpaceOnUse" x1="12.7743" y1="63.3695" x2="121.4627" y2="63.3695">
			<stop  offset="0" style="stop-color:#E2C466"/>
			<stop  offset="0.23" style="stop-color:#976F33"/>
			<stop  offset="0.33" style="stop-color:#D5B55C"/>
			<stop  offset="0.46" style="stop-color:#F6F1B7"/>
			<stop  offset="0.58" style="stop-color:#D5B55C"/>
			<stop  offset="0.69" style="stop-color:#815D2A"/>
			<stop  offset="1" style="stop-color:#D5B55C"/>
		</linearGradient>
		<path class="st4" d="M104.2,22C93.1,10.9,78.4,4.7,62.7,4.7S32.2,10.9,21.1,22c-3.2,3.2-6,6.7-8.3,10.4c2,1.5,4.3,3.2,6.9,4.9
			c2.1-3.3,4.5-6.5,7.4-9.3c9.5-9.5,22.2-14.8,35.6-14.8s26.1,5.2,35.6,14.8c9.5,9.5,14.8,22.2,14.8,35.6c0,13.5-5.2,26.1-14.8,35.6
			c-4.7,4.7-10.1,8.3-16,10.8c-3.8,4.4-8.1,8.4-12.8,11.9c-0.1,0-0.1,0.1-0.2,0.1c13.2-1.5,25.4-7.3,34.9-16.8
			c11.1-11.1,17.2-25.9,17.2-41.6C121.5,47.8,115.3,33.1,104.2,22z"/>
	</g>
</g>
<g>
	<path class="st0" d="M161.9,23.6h-11.4v7.5c0,0.7,0.4,1.1,1.1,1.1c0.7,0,1.1-0.4,1.1-1.1v-5.3h9.2c0.6,0,1.1,0.2,1.6,0.6
		c0.4,0.4,0.6,1,0.6,1.6l0,3.2c0,1.5-0.8,2.2-2.2,2.2h-6.9c-1.3,0-2.4,0.4-3.2,1.3c-0.9,0.8-1.3,1.8-1.3,3.1l0,6.4
		c0,0.7,0.4,1.1,1.2,1.1c0.6,0,1-0.4,1.1-1.1v-6.4c0-0.6,0.2-1.2,0.6-1.5c0.4-0.4,1-0.6,1.6-0.6h6.9c1.2,0,2.3-0.4,3.1-1.3
		c0.8-0.9,1.2-1.9,1.2-3.2l0-3.2c0-1.3-0.4-2.4-1.2-3.2C164.3,24,163.2,23.6,161.9,23.6z"/>
	<path class="st0" d="M183.3,23.6h-11.4v20.7c0,0.7,0.4,1.1,1.1,1.1c0.7,0,1.1-0.4,1.1-1.1V25.9h9.2c0.6,0,1.1,0.2,1.6,0.6
		c0.4,0.4,0.6,1,0.6,1.6l0,2.3c0,1.5-0.8,2.2-2.2,2.2h-2.8l-0.9,0c-0.9,0-1.7,0.3-2.2,1c-0.6,0.6-0.9,1.4-0.9,2.3
		c0,1,0.4,1.8,1.1,2.4l7.1,6.7c0.2,0.2,0.5,0.3,0.8,0.3c0.8,0,1.1-0.4,1.1-1.1c0-0.1-0.1-0.3-0.1-0.4c0-0.1-0.1-0.3-0.3-0.4
		l-7.3-6.8c-0.2-0.3-0.3-0.6-0.3-0.7c0-0.7,0.4-1,1.1-1h3.6c1.3,0,2.3-0.4,3.1-1.3c0.8-0.9,1.2-1.9,1.2-3.2l0-2.3
		c0-1.3-0.4-2.4-1.1-3.2C185.7,24,184.7,23.6,183.3,23.6z"/>
	<path class="st0" d="M208.3,23.6h-15l0,7.8c0,0.7,0.4,1.1,1.1,1.1c0.4,0,0.6-0.1,0.8-0.3c0.2-0.3,0.3-0.6,0.3-0.8v-5.6h12.7
		c0.3,0,0.6-0.1,0.8-0.3c0.2-0.2,0.4-0.5,0.4-0.8C209.4,24,209,23.6,208.3,23.6z"/>
	<path class="st0" d="M208.2,43.2h-12.7v-5.7c0-0.6,0.2-1.2,0.6-1.6c0.4-0.4,0.9-0.7,1.6-0.7h6.8c0.3,0,0.6-0.1,0.8-0.3
		c0.2-0.2,0.3-0.5,0.3-0.8c0-0.7-0.4-1.1-1.1-1.1h-6.9c-1.3,0-2.4,0.4-3.2,1.3c-0.8,0.9-1.2,1.9-1.2,3.2l0,7.8h15
		c0.7,0,1.1-0.4,1.1-1.1C209.4,43.6,209,43.2,208.2,43.2z"/>
	<path class="st0" d="M230.9,34.7c-0.8-0.9-1.8-1.3-3.1-1.3h-8.4c-1.4,0-2.2-0.7-2.2-2.2v-3c0-0.6,0.2-1.2,0.6-1.6
		c0.4-0.4,0.9-0.6,1.6-0.6h11.1c0.3,0,0.5-0.1,0.8-0.4c0.2-0.3,0.4-0.5,0.4-0.8c0-0.7-0.4-1.1-1.1-1.1h-11.1c-1.3,0-2.4,0.4-3.2,1.3
		c-0.8,0.8-1.2,1.9-1.2,3.2l0,3c0,0.6,0.1,1.3,0.3,1.8c0.2,0.6,0.5,1,0.9,1.4c0.4,0.4,0.8,0.7,1.4,1c0.5,0.2,1.1,0.3,1.8,0.3h8.4
		c1.4,0,2.1,0.7,2.1,2.2l0,3c0,0.6-0.2,1.1-0.6,1.6c-0.4,0.4-0.9,0.6-1.6,0.6h-11.3c-0.7,0-1.1,0.4-1.1,1.1c0,0.3,0.1,0.6,0.4,0.8
		c0.3,0.2,0.6,0.3,0.9,0.3h11.1c1.3,0,2.3-0.4,3.2-1.3c0.8-0.8,1.2-1.9,1.2-3.2l0-3C232.1,36.6,231.7,35.5,230.9,34.7z"/>
	<path class="st0" d="M253.2,23.6h-14.3c-0.8,0-1.2,0.4-1.2,1.1c0,0.7,0.4,1.1,1.2,1.1h6.1l0,18.5c0,0.7,0.4,1.1,1.1,1.1
		c0.7,0,1.1-0.4,1.1-1.1l0-18.5h6.1c0.7,0,1.1-0.4,1.1-1.1C254.3,24,253.9,23.6,253.2,23.6z"/>
	<path class="st0" d="M261,23.7c-0.7,0-1.1,0.4-1.1,1.1v19.6c0,0.7,0.4,1.1,1.1,1.1c0.7,0,1.1-0.4,1.1-1.1V24.8
		C262.1,24.1,261.8,23.7,261,23.7z"/>
	<path class="st0" d="M283.6,42.8c0.7,0,1.1-0.4,1.1-1.1v-3.8c0-1.4-0.4-2.5-1.2-3.3c-0.8-0.8-1.8-1.2-3.2-1.2h-3.9
		c-0.7,0-1.1,0.4-1.1,1.1c0,0.3,0.1,0.6,0.3,0.8c0.2,0.2,0.5,0.3,0.8,0.3h3.8c0.6,0,1.1,0.2,1.6,0.7c0.4,0.4,0.6,1,0.6,1.6l0,3.8
		C282.5,42.4,282.8,42.8,283.6,42.8z"/>
	<path class="st0" d="M283.4,44.3c-0.8-0.8-1.9-1.2-3.3-1.2h-8c-0.6,0-1.1-0.2-1.6-0.6c-0.4-0.4-0.6-1-0.6-1.6v-12v-0.8
		c0-0.6,0.2-1.2,0.6-1.6c0.4-0.4,0.9-0.7,1.6-0.7h11.5c0.1-0.1,0.3-0.1,0.3-0.2c0.1-0.1,0.1-0.1,0.2-0.1c0.2-0.3,0.4-0.6,0.4-0.8
		s-0.1-0.5-0.4-0.8c-0.2-0.1-0.3-0.1-0.4-0.2c-0.1-0.1-0.2-0.1-0.3-0.1l-11.3,0c-1.3,0-2.4,0.4-3.2,1.3c-0.8,0.9-1.2,1.9-1.2,3.2
		v12.8c0,1.3,0.4,2.4,1.2,3.2c0.8,0.8,1.8,1.3,3.2,1.3h6.6l1.4,0c0.3,0,0.7,0,0.9,0.1h3.2C284,45,283.7,44.6,283.4,44.3z"/>
	<path class="st0" d="M291.4,32.6c0.4,0,0.6-0.1,0.8-0.3c0.2-0.3,0.3-0.6,0.3-0.8v-5.6h12.7c0.3,0,0.6-0.1,0.8-0.3
		c0.2-0.2,0.4-0.5,0.4-0.8c0-0.7-0.4-1.1-1.1-1.1h-15l0,7.8C290.3,32.2,290.6,32.6,291.4,32.6z"/>
	<path class="st0" d="M305.3,45.4c0.7,0,1.1-0.4,1.1-1.1c0-0.8-0.4-1.1-1.2-1.1h-12.7v-5.7c0-0.6,0.2-1.2,0.6-1.6
		c0.4-0.4,0.9-0.7,1.6-0.7h6.8c0.3,0,0.6-0.1,0.8-0.3c0.2-0.2,0.3-0.5,0.3-0.8c0-0.7-0.4-1.1-1.1-1.1h-6.9c-1.3,0-2.4,0.4-3.2,1.3
		c-0.8,0.9-1.2,1.9-1.2,3.2l0,7.8H305.3z"/>
</g>
<rect x="134" y="36.3" class="st0" width="1" height="62.4"/>
</svg>
